<svg xmlns="http://www.w3.org/2000/svg" fill="none" viewBox="0 0 23 22">
  <g clip-path="url(#gh-clip-path)">
    <path fill="#24292F" fill-rule="evenodd" d="M11.2 0C5 0 0 5.04 0 11.28c0 4.98 3.2 9.2 7.66 10.7.55.11.76-.24.76-.54l-.02-2.1C5.28 20.03 4.63 18 4.63 18c-.5-1.3-1.24-1.64-1.24-1.64-1.02-.7.08-.7.08-.7 1.13.08 1.72 1.16 1.72 1.16 1 1.72 2.61 1.24 3.26.94.1-.73.4-1.23.7-1.51-2.48-.27-5.1-1.24-5.1-5.57 0-1.23.45-2.24 1.16-3.02a4.1 4.1 0 0 1 .11-3s.95-.29 3.08 1.17a10.76 10.76 0 0 1 5.6 0c2.13-1.46 3.07-1.16 3.07-1.16a4.1 4.1 0 0 1 .11 2.99c.73.78 1.15 1.79 1.15 3.02 0 4.33-2.61 5.29-5.11 5.57.4.35.76 1.02.76 2.09l-.02 3.1c0 .3.2.65.76.54a11.27 11.27 0 0 0 7.65-10.7C22.4 5.04 17.37 0 11.2 0Z" clip-rule="evenodd"/>
  </g>
  <defs>
    <clipPath id="gh-clip-path">
      <path fill="#fff" d="M0 0h22.46v22H0z"/>
    </clipPath>
  </defs>
</svg>
